HIERARCHY
ROOT Hips
{
	OFFSET 0.000000 97.167313 0.000000
	CHANNELS 6 Xposition Yposition Zposition Xrotation Yrotation Zrotation
	JOINT Spine
	{
		OFFSET 0.000000 13.784798 0.064400
		CHANNELS 3 Xrotation Yrotation Zrotation
		JOINT Spine1
		{
			OFFSET 0.000000 12.037903 0.404700
			CHANNELS 3 Xrotation Yrotation Zrotation
			JOINT Spine2
			{
				OFFSET 0.000000 17.795601 0.420200
				CHANNELS 3 Xrotation Yrotation Zrotation
				JOINT Neck
				{
					OFFSET 0.000000 39.131302 11.954600
					CHANNELS 3 Xrotation Yrotation Zrotation
					JOINT Head
					{
						OFFSET 0.000000 14.456192 15.627699
						CHANNELS 3 Xrotation Yrotation Zrotation
						JOINT HeadTop_End
						{
							OFFSET 0.000000 15.703506 7.603401
							CHANNELS 3 Xrotation Yrotation Zrotation
							End Site
							{
								OFFSET 0.000000 17.447403 0.000000
							}
						}
					}
				}
				JOINT LeftShoulder
				{
					OFFSET 17.399500 24.608795 1.168800
					CHANNELS 3 Xrotation Yrotation Zrotation
					JOINT LeftArm
					{
						OFFSET 18.980635 5.765305 1.818600
						CHANNELS 3 Xrotation Yrotation Zrotation
						JOINT LeftForeArm
						{
							OFFSET 49.290169 0.000000 0.000000
							CHANNELS 3 Xrotation Yrotation Zrotation
							JOINT LeftHand
							{
								OFFSET 31.562012 0.000000 0.000000
								CHANNELS 3 Xrotation Yrotation Zrotation
								JOINT LeftHandThumb1
								{
									OFFSET 6.133995 -4.388519 7.076070
									CHANNELS 3 Xrotation Yrotation Zrotation
									JOINT LeftHandThumb2
									{
										OFFSET 6.037666 -3.485840 3.485847
										CHANNELS 3 Xrotation Yrotation Zrotation
										JOINT LeftHandThumb3
										{
											OFFSET 6.496506 -3.750763 3.750761
											CHANNELS 3 Xrotation Yrotation Zrotation
											JOINT LeftHandThumb4
											{
												OFFSET 5.616882 -3.242905 3.242910
												CHANNELS 3 Xrotation Yrotation Zrotation
												End Site
												{
													OFFSET -1.254608 7.132141 0.375429
												}
											}
										}
									}
								}
								JOINT LeftHandPinky1
								{
									OFFSET 18.920792 -0.453171 -11.426712
									CHANNELS 3 Xrotation Yrotation Zrotation
									JOINT LeftHandPinky2
									{
										OFFSET 4.919586 0.000000 0.000000
										CHANNELS 3 Xrotation Yrotation Zrotation
										JOINT LeftHandPinky3
										{
											OFFSET 5.233047 0.000000 0.000000
											CHANNELS 3 Xrotation Yrotation Zrotation
											JOINT LeftHandPinky4
											{
												OFFSET 5.571716 0.000000 0.000000
												CHANNELS 3 Xrotation Yrotation Zrotation
												End Site
												{
													OFFSET -3.459808 4.342407 -0.466164
												}
											}
										}
									}
								}
								JOINT LeftHandRing1
								{
									OFFSET 22.726120 -0.094986 -6.500475
									CHANNELS 3 Xrotation Yrotation Zrotation
									JOINT LeftHandRing2
									{
										OFFSET 6.408615 0.000000 0.000000
										CHANNELS 3 Xrotation Yrotation Zrotation
										JOINT LeftHandRing3
										{
											OFFSET 6.150223 0.000000 0.000000
											CHANNELS 3 Xrotation Yrotation Zrotation
											JOINT LeftHandRing4
											{
												OFFSET 6.145386 0.000000 0.000000
												CHANNELS 3 Xrotation Yrotation Zrotation
												End Site
												{
													OFFSET -3.671402 4.923981 -0.202372
												}
											}
										}
									}
								}
								JOINT LeftHandMiddle1
								{
									OFFSET 23.373947 0.000000 0.000001
									CHANNELS 3 Xrotation Yrotation Zrotation
									JOINT LeftHandMiddle2
									{
										OFFSET 6.996567 0.000000 0.000000
										CHANNELS 3 Xrotation Yrotation Zrotation
										JOINT LeftHandMiddle3
										{
											OFFSET 7.015945 0.000000 0.000000
											CHANNELS 3 Xrotation Yrotation Zrotation
											JOINT LeftHandMiddle4
											{
												OFFSET 7.721573 0.000000 0.000000
												CHANNELS 3 Xrotation Yrotation Zrotation
												End Site
												{
													OFFSET -4.651108 6.158463 0.251582
												}
											}
										}
									}
								}
								JOINT LeftHandIndex1
								{
									OFFSET 21.310577 -0.490082 6.209344
									CHANNELS 3 Xrotation Yrotation Zrotation
									JOINT LeftHandIndex2
									{
										OFFSET 7.536453 0.000000 0.000000
										CHANNELS 3 Xrotation Yrotation Zrotation
										JOINT LeftHandIndex3
										{
											OFFSET 7.512344 0.000000 0.000000
											CHANNELS 3 Xrotation Yrotation Zrotation
											JOINT LeftHandIndex4
											{
												OFFSET 10.212402 0.000000 0.000001
												CHANNELS 3 Xrotation Yrotation Zrotation
												End Site
												{
													OFFSET -5.180801 8.690506 1.388433
												}
											}
										}
									}
								}
							}
						}
					}
				}
				JOINT RightShoulder
				{
					OFFSET -17.399500 24.608795 1.168800
					CHANNELS 3 Xrotation Yrotation Zrotation
					JOINT RightArm
					{
						OFFSET -18.980635 5.765305 1.818600
						CHANNELS 3 Xrotation Yrotation Zrotation
						JOINT RightForeArm
						{
							OFFSET -49.290169 0.000000 0.000000
							CHANNELS 3 Xrotation Yrotation Zrotation
							JOINT RightHand
							{
								OFFSET -31.562012 0.000000 0.000000
								CHANNELS 3 Xrotation Yrotation Zrotation
								JOINT RightHandThumb1
								{
									OFFSET -6.133995 -4.388519 7.076070
									CHANNELS 3 Xrotation Yrotation Zrotation
									JOINT RightHandThumb2
									{
										OFFSET -6.037666 -3.485840 3.485847
										CHANNELS 3 Xrotation Yrotation Zrotation
										JOINT RightHandThumb3
										{
											OFFSET -6.496506 -3.750763 3.750761
											CHANNELS 3 Xrotation Yrotation Zrotation
											JOINT RightHandThumb4
											{
												OFFSET -5.616882 -3.242905 3.242910
												CHANNELS 3 Xrotation Yrotation Zrotation
												End Site
												{
													OFFSET 1.254608 7.132141 0.375429
												}
											}
										}
									}
								}
								JOINT RightHandIndex1
								{
									OFFSET -21.310577 -0.490082 6.209344
									CHANNELS 3 Xrotation Yrotation Zrotation
									JOINT RightHandIndex2
									{
										OFFSET -7.536453 0.000000 0.000000
										CHANNELS 3 Xrotation Yrotation Zrotation
										JOINT RightHandIndex3
										{
											OFFSET -7.512344 0.000000 0.000000
											CHANNELS 3 Xrotation Yrotation Zrotation
											JOINT RightHandIndex4
											{
												OFFSET -10.212402 0.000000 0.000001
												CHANNELS 3 Xrotation Yrotation Zrotation
												End Site
												{
													OFFSET 5.180801 8.690506 1.388433
												}
											}
										}
									}
								}
								JOINT RightHandMiddle1
								{
									OFFSET -23.373947 0.000000 0.000001
									CHANNELS 3 Xrotation Yrotation Zrotation
									JOINT RightHandMiddle2
									{
										OFFSET -6.996567 0.000000 0.000000
										CHANNELS 3 Xrotation Yrotation Zrotation
										JOINT RightHandMiddle3
										{
											OFFSET -7.015945 0.000000 0.000000
											CHANNELS 3 Xrotation Yrotation Zrotation
											JOINT RightHandMiddle4
											{
												OFFSET -7.721573 0.000000 0.000000
												CHANNELS 3 Xrotation Yrotation Zrotation
												End Site
												{
													OFFSET 4.651108 6.158463 0.251582
												}
											}
										}
									}
								}
								JOINT RightHandRing1
								{
									OFFSET -22.726120 -0.094986 -6.500475
									CHANNELS 3 Xrotation Yrotation Zrotation
									JOINT RightHandRing2
									{
										OFFSET -6.408615 0.000000 0.000000
										CHANNELS 3 Xrotation Yrotation Zrotation
										JOINT RightHandRing3
										{
											OFFSET -6.150223 0.000000 0.000000
											CHANNELS 3 Xrotation Yrotation Zrotation
											JOINT RightHandRing4
											{
												OFFSET -6.145386 0.000000 0.000000
												CHANNELS 3 Xrotation Yrotation Zrotation
												End Site
												{
													OFFSET 3.671402 4.923981 -0.202372
												}
											}
										}
									}
								}
								JOINT RightHandPinky1
								{
									OFFSET -18.920792 -0.453171 -11.426712
									CHANNELS 3 Xrotation Yrotation Zrotation
									JOINT RightHandPinky2
									{
										OFFSET -4.919586 0.000000 0.000000
										CHANNELS 3 Xrotation Yrotation Zrotation
										JOINT RightHandPinky3
										{
											OFFSET -5.233047 0.000000 0.000000
											CHANNELS 3 Xrotation Yrotation Zrotation
											JOINT RightHandPinky4
											{
												OFFSET -5.571716 0.000000 0.000000
												CHANNELS 3 Xrotation Yrotation Zrotation
												End Site
												{
													OFFSET 3.459808 4.342407 -0.466164
												}
											}
										}
									}
								}
							}
						}
					}
				}
			}
		}
	}
	JOINT LeftUpLeg
	{
		OFFSET 19.899099 -7.885101 -3.429500
		CHANNELS 3 Xrotation Yrotation Zrotation
		JOINT LeftLeg
		{
			OFFSET 1.745560 -36.997807 10.304700
			CHANNELS 3 Xrotation Yrotation Zrotation
			JOINT LeftFoot
			{
				OFFSET -1.745558 -29.803308 -13.615400
				CHANNELS 3 Xrotation Yrotation Zrotation
				JOINT LeftToeBase
				{
					OFFSET 1.181900 -18.539904 15.226099
					CHANNELS 3 Xrotation Yrotation Zrotation
					JOINT LeftToe_End
					{
						OFFSET -0.863701 1.402801 16.534700
						CHANNELS 3 Xrotation Yrotation Zrotation
						End Site
						{
							OFFSET 0.000000 16.616566 0.000000
						}
					}
				}
			}
		}
	}
	JOINT RightUpLeg
	{
		OFFSET -19.899099 -7.885101 -3.429500
		CHANNELS 3 Xrotation Yrotation Zrotation
		JOINT RightLeg
		{
			OFFSET -1.745560 -36.997807 10.304700
			CHANNELS 3 Xrotation Yrotation Zrotation
			JOINT RightFoot
			{
				OFFSET 1.745558 -29.803308 -13.615400
				CHANNELS 3 Xrotation Yrotation Zrotation
				JOINT RightToeBase
				{
					OFFSET -1.181900 -18.539904 15.226099
					CHANNELS 3 Xrotation Yrotation Zrotation
					JOINT RightToe_End
					{
						OFFSET 0.863701 1.402801 16.534700
						CHANNELS 3 Xrotation Yrotation Zrotation
						End Site
						{
							OFFSET 0.000000 16.616566 0.000000
						}
					}
				}
			}
		}
	}
}
MOTION
Frames: 4
Frame Time: 0.033333
0.064546 61.930527 -4.291167 -8.396615 5.533243 0.547287 16.439625 -0.271181 0.338693 0.452957 -0.337392 -0.261150 0.453162 -0.340625 -0.259265 -0.235318 -4.772918 -1.486433 -20.858378 -5.750510 0.624949 0.000000 -0.000001 -0.000000 0.841999 -10.647959 -4.738556 -47.014350 10.136501 9.335404 -126.259462 -42.446135 -120.078933 -63.203231 -13.903291 -12.977966 10.211547 8.444614 1.349883 2.116312 25.485867 -2.117457 0.000005 -0.000026 -0.000002 0.000003 0.000002 -0.000001 -11.676266 17.940399 -68.791268 8.988685 -13.569778 -80.713821 0.000003 0.000012 0.000001 -0.000002 -0.000001 -0.000007 -11.230875 17.737296 -62.372564 12.173194 6.491319 -69.707640 -0.000006 -0.000009 -0.000004 -0.000004 0.000000 -0.000000 -8.255940 16.750849 -53.232247 15.611598 10.097280 -86.278362 0.000007 0.000001 0.000009 0.000001 -0.000002 0.000004 3.089042 4.452548 -57.897007 9.085752 12.353180 -78.759430 -0.000021 0.000009 0.000001 -0.000001 0.000001 -0.000001 3.104139 -3.633109 6.522050 -54.348338 0.570833 -2.992786 -155.613470 67.175368 142.949562 -82.495988 17.645314 27.676910 10.211254 -8.443949 -1.349986 1.879138 -24.849794 1.933723 -0.000003 0.000006 0.000014 0.000000 0.000000 0.000002 3.474817 -5.257297 60.627505 9.950168 -12.408137 83.619533 -0.000006 -0.000012 -0.000001 -0.000001 -0.000001 -0.000001 -7.611918 -17.527353 55.326547 16.217074 -9.925195 88.508214 -0.000006 0.000004 -0.000009 -0.000001 0.000002 -0.000001 -10.375549 -18.920993 64.731308 13.658270 -6.331349 76.187509 0.000005 0.000001 0.000007 0.000001 0.000001 -0.000003 -11.019210 -18.777824 70.061997 9.070906 13.439714 82.516342 0.000003 0.000010 0.000005 -0.000001 0.000003 0.000003 -42.040118 -12.449890 20.155916 80.875532 -7.359089 -2.957662 -28.394215 0.693020 -15.766795 -0.000002 -0.000001 -0.000001 -0.000000 -0.000000 -0.000000 -30.037628 -2.411096 -27.986581 83.603066 9.294148 3.674098 -42.483954 -5.799734 11.458765 -0.000057 0.000002 -0.000006 -0.000000 -0.000000 -0.000000 
0.106033 62.094170 -4.539913 -8.276957 5.076409 0.537493 16.604328 -0.127592 0.380567 0.744629 -0.111710 -0.128743 0.744399 -0.114332 -0.126735 0.260291 -4.678482 -1.973289 -19.705208 -5.915136 1.227138 -0.000000 -0.000000 -0.000000 0.780612 -10.253170 -5.345787 -47.230871 10.165286 7.888798 -129.786558 -43.600926 -124.641636 -60.441724 -13.637595 -14.911739 10.211554 8.444593 1.349872 2.105496 25.458087 -2.111530 0.000005 -0.000023 -0.000003 -0.000001 0.000001 -0.000001 -11.749311 17.849617 -68.617043 8.981697 -13.581516 -80.554992 0.000003 0.000009 -0.000001 0.000003 0.000005 -0.000003 -11.280620 17.676383 -62.193660 12.045982 6.494286 -69.159354 -0.000007 -0.000009 -0.000012 0.000002 0.000000 0.000003 -8.286990 16.719576 -53.084954 15.592174 10.102586 -86.207151 0.000004 -0.000001 0.000011 -0.000002 -0.000000 0.000004 3.062167 4.403666 -57.691275 9.011285 12.344163 -78.339230 -0.000023 0.000003 0.000005 -0.000001 -0.000000 -0.000001 3.169379 -3.402260 6.323145 -55.004552 0.084976 -2.253179 -164.820798 67.006253 151.518881 -79.350966 15.781304 29.391953 10.211248 -8.443943 -1.349991 1.846001 -24.762426 1.910716 0.000002 0.000010 0.000018 0.000002 0.000000 0.000004 3.482750 -5.284257 60.676621 9.956363 -12.408293 83.653357 -0.000006 -0.000018 -0.000006 -0.000002 -0.000003 -0.000001 -7.582512 -17.568961 55.375045 16.254112 -9.913793 88.645132 -0.000005 0.000006 -0.000009 -0.000000 0.000001 -0.000008 -10.345929 -18.971578 64.772405 13.673729 -6.328920 76.244493 0.000005 0.000006 0.000007 0.000002 -0.000002 -0.000003 -11.032925 -18.767493 70.004453 9.071352 13.439019 82.526007 0.000003 0.000010 0.000009 -0.000000 -0.000000 0.000006 -42.051060 -12.115598 20.201236 80.503068 -7.729772 -3.136816 -28.121962 1.104637 -15.311353 -0.000002 0.000000 -0.000001 -0.000000 0.000001 -0.000000 -30.857606 -2.009219 -27.753388 83.401002 8.953435 3.506035 -41.551336 -5.649727 11.639282 -0.000057 0.000000 -0.000006 -0.000000 -0.000002 -0.000000 
0.201585 62.297508 -4.786292 -7.846796 5.045747 0.480205 16.766320 -0.073058 0.458893 1.007278 -0.055403 0.021533 1.006948 -0.057499 0.023579 -0.767207 -3.970604 -2.564225 -20.435351 -5.354572 1.220354 -0.000000 -0.000000 0.000000 0.772041 -10.198153 -5.375672 -45.871165 10.504369 6.910109 -127.495508 -43.889088 -122.638533 -60.229551 -13.321495 -13.924871 10.211551 8.444590 1.349872 2.094735 25.430509 -2.105591 0.000004 -0.000024 -0.000004 -0.000002 0.000001 -0.000001 -11.821534 17.759042 -68.444253 8.974819 -13.593259 -80.397187 -0.000000 0.000010 -0.000006 -0.000004 0.000003 -0.000004 -11.329846 17.615616 -62.015980 11.919564 6.495527 -68.614455 -0.000004 -0.000005 -0.000009 -0.000001 -0.000001 0.000003 -8.317799 16.688392 -52.938617 15.572864 10.107883 -86.136349 0.000003 -0.000003 0.000009 0.000001 -0.000004 0.000004 3.035719 4.354999 -57.486840 8.937400 12.334296 -77.921674 -0.000020 0.000008 -0.000000 0.000002 0.000000 -0.000002 3.107469 -3.135133 5.546973 -54.417808 -0.745056 -1.747109 -159.733235 67.594755 146.882576 -80.267140 16.347516 29.121092 10.211254 -8.443952 -1.349979 1.813075 -24.675633 1.887867 0.000001 0.000011 0.000021 -0.000001 -0.000002 0.000003 3.490664 -5.311053 60.725463 9.962527 -12.408417 83.687016 -0.000006 -0.000011 -0.000003 -0.000002 -0.000005 0.000001 -7.553224 -17.610255 55.423266 16.290886 -9.902371 88.781169 -0.000005 0.000007 -0.000008 -0.000001 0.000001 -0.000004 -10.316424 -19.021814 64.813311 13.688713 -6.326420 76.301150 0.000006 0.000005 0.000003 0.000000 0.000001 -0.000002 -11.046525 -18.757194 69.947271 9.071838 13.438325 82.535664 0.000003 0.000006 0.000005 -0.000003 0.000000 0.000004 -42.763664 -11.927276 19.915551 80.102649 -7.731505 -3.137225 -27.491368 1.245921 -14.999707 -0.000002 -0.000001 -0.000001 0.000000 0.000000 -0.000000 -31.784152 -2.058482 -27.700522 83.059970 8.395853 3.231818 -40.669275 -5.444268 12.050235 -0.000057 -0.000000 -0.000006 0.000000 -0.000002 -0.000000 
0.273355 62.465630 -5.006853 -7.042877 4.944873 0.538600 16.838814 -0.067870 0.458532 1.069133 -0.070907 -0.025240 1.068820 -0.072646 -0.023252 -3.007897 -3.783895 -2.488472 -19.049017 -5.112564 1.084533 0.000000 0.000000 -0.000000 0.764892 -10.422117 -5.524034 -45.895705 10.026412 6.548862 -126.514447 -42.868692 -121.194494 -61.987833 -13.038525 -12.707023 10.211567 8.444592 1.349870 2.084077 25.403161 -2.099744 0.000003 -0.000030 -0.000002 -0.000000 -0.000000 -0.000001 -11.892750 17.668875 -68.273301 8.967990 -13.604953 -80.240707 0.000004 0.000006 0.000002 -0.000004 0.000001 -0.000004 -11.378471 17.555225 -61.839973 11.794221 6.495056 -68.074344 -0.000004 -0.000011 -0.000004 -0.000002 -0.000001 0.000003 -8.348311 16.657418 -52.793602 15.553732 10.113104 -86.066217 0.000004 -0.000001 0.000007 -0.000002 -0.000000 0.000004 3.009792 4.306618 -57.284202 8.864102 12.323733 -77.507778 -0.000019 0.000008 0.000001 -0.000002 0.000000 -0.000001 3.075473 -2.587626 6.351695 -54.123983 0.641934 -2.343471 -155.026497 66.914619 142.668308 -82.091190 16.365483 29.101988 10.211252 -8.443951 -1.350015 1.780423 -24.589610 1.865273 0.000001 0.000013 0.000015 0.000002 -0.000001 -0.000001 3.498556 -5.337606 60.773876 9.968614 -12.408563 83.720333 -0.000006 -0.000016 -0.000006 0.000000 0.000000 0.000004 -7.524123 -17.651152 55.471108 16.327338 -9.890941 88.916058 -0.000006 0.000004 -0.000011 -0.000001 0.000000 -0.000004 -10.287093 -19.071556 64.853917 13.703119 -6.324222 76.357321 0.000007 0.000008 0.000005 0.000001 -0.000000 -0.000003 -11.060030 -18.746964 69.890587 9.072301 13.437643 82.545179 0.000006 0.000011 0.000004 -0.000002 -0.000001 0.000004 -43.904319 -11.380991 19.587029 79.720677 -7.361935 -2.958304 -26.811161 1.149369 -14.864095 -0.000002 -0.000001 -0.000001 -0.000000 0.000000 0.000000 -33.170004 -1.888622 -27.756028 82.803456 8.090222 3.081303 -39.806056 -5.335093 12.234279 -0.000057 -0.000000 -0.000006 0.000000 -0.000002 -0.000000 
